<svg width="25" height="27" viewBox="0 0 25 27" fill="none" xmlns="http://www.w3.org/2000/svg">
<path d="M1.73873 2.15705L12.3187 0.276623C12.5504 0.235296 12.7875 0.242139 13.0166 0.296762C13.2457 0.351384 13.4622 0.452716 13.6539 0.59497C13.8456 0.737224 14.0086 0.917614 14.1337 1.12584C14.2587 1.33406 14.3434 1.56603 14.3828 1.80851L17.1993 19.1912C17.279 19.6808 17.1698 20.1835 16.8955 20.5888C16.6212 20.994 16.2043 21.2685 15.7367 21.3521L5.15733 23.2318C4.6907 23.313 4.21234 23.1974 3.8269 22.9103C3.44147 22.6232 3.18035 22.188 3.10066 21.6999L0.275431 4.31856C0.235954 4.07609 0.242491 3.82786 0.294668 3.58803C0.346845 3.34821 0.443639 3.1215 0.579523 2.92084C0.715408 2.72018 0.88772 2.54951 1.08662 2.41858C1.28552 2.28765 1.5071 2.19902 1.73873 2.15776V2.15705Z" fill="black" stroke="black" stroke-width="0.5" stroke-linecap="round" stroke-linejoin="round"/>
<path d="M14.6217 3.39243L21.1676 5.09859C23.8082 5.63967 24.7522 7.07482 23.9995 9.40404L20.5232 23.9148C20.0167 25.9667 18.7156 26.6664 16.62 26.0138L9.36392 24.2247C8.49534 24.0233 7.62407 23.6166 6.75012 23.0048" fill="black"/>
<path d="M14.6217 3.39243L21.1676 5.09859C23.8082 5.63967 24.7522 7.07482 23.9996 9.40404L20.5232 23.9148C20.0167 25.9667 18.7156 26.6664 16.62 26.0138L9.36392 24.2247C8.49534 24.0233 7.62407 23.6167 6.75012 23.0048" stroke="black" stroke-width="0.5" stroke-linecap="round" stroke-linejoin="round"/>
</svg>
