<svg width="24" height="26" viewBox="0 0 24 26" fill="none" xmlns="http://www.w3.org/2000/svg">
<path d="M0 24.31V9.62093C0 9.1883 0.0982856 8.77877 0.294857 8.39233C0.491428 8.00589 0.762286 7.68762 1.10743 7.4375L10.3389 0.545857C10.8223 0.181953 11.3743 0 11.9949 0C12.6154 0 13.1709 0.181953 13.6611 0.545857L22.8926 7.43581C23.2389 7.68593 23.5097 8.00477 23.7051 8.39233C23.9017 8.77877 24 9.1883 24 9.62093V24.31C24 24.763 23.8291 25.1578 23.4874 25.4947C23.1457 25.8316 22.7451 26 22.2857 26H16.4846C16.0914 26 15.7623 25.8693 15.4971 25.6079C15.232 25.3454 15.0994 25.021 15.0994 24.6345V16.5751C15.0994 16.1887 14.9669 15.8648 14.7017 15.6034C14.4354 15.3409 14.1063 15.2096 13.7143 15.2096H10.2857C9.89371 15.2096 9.56514 15.3409 9.3 15.6034C9.03371 15.8648 8.90057 16.1887 8.90057 16.5751V24.6362C8.90057 25.0226 8.768 25.3465 8.50286 25.6079C8.23771 25.8693 7.90914 26 7.51714 26H1.71429C1.25486 26 0.854285 25.8316 0.512571 25.4947C0.170857 25.1578 0 24.763 0 24.31Z" fill="black"/>
</svg>
